<svg width="100%" height="509" viewBox="0 0 814 509" fill="none" xmlns="http://www.w3.org/2000/svg">
<g id="Frame 1">
<rect width="100%" height="509" fill="white"/>
<circle id="circle2_2" cx="148.5" cy="57.5" r="25" fill="#413F3F" stroke="#1E1E1E" stroke-width="5"/>
<circle id="circle2_3" cx="148.5" cy="203.5" r="25" fill="#413F3F" stroke="#1E1E1E" stroke-width="5"/>
<circle id="circle2_5" cx="361.5" cy="132.5" r="25" fill="#413F3F" stroke="#1E1E1E" stroke-width="5"/>
<circle id="circle2_6" cx="467.5" cy="57.5" r="25" fill="#413F3F" stroke="#1E1E1E" stroke-width="5"/>
<circle id="circle2_7" cx="470.5" cy="203.5" r="25" fill="#413F3F" stroke="#1E1E1E" stroke-width="5"/>
<circle id="circle2_9" cx="643.5" cy="203.5" r="25" fill="#413F3F" stroke="#1E1E1E" stroke-width="5"/>
<circle id="circle2_10" cx="576.5" cy="313.5" r="25" fill="#413F3F" stroke="#1E1E1E" stroke-width="5"/>
<circle id="circle2_11" cx="712.5" cy="314.5" r="25" fill="#413F3F" stroke="#1E1E1E" stroke-width="5"/>
<circle id="circle2_8" cx="644.5" cy="91.5" r="25" fill="#413F3F" stroke="#1E1E1E" stroke-width="5"/>
<path id="Arrow 1" d="M125.326 71.4885C125.466 70.9542 125.146 70.4077 124.612 70.2678L115.905 67.9886C115.371 67.8487 114.824 68.1684 114.684 68.7027C114.545 69.237 114.864 69.7835 115.399 69.9234L123.138 71.9494L121.112 79.6886C120.972 80.2229 121.292 80.7694 121.826 80.9092C122.36 81.0491 122.907 80.7294 123.047 80.1951L125.326 71.4885ZM60.1286 109.972L124.863 72.0984L123.854 70.3721L59.1187 108.246L60.1286 109.972Z" fill="#1E1E1E"/>
<path id="Arrow 8" d="M447.326 77.1445C447.466 76.6103 447.146 76.0638 446.612 75.9239L437.905 73.6446C437.371 73.5048 436.824 73.8245 436.684 74.3588C436.545 74.8931 436.864 75.4396 437.399 75.5794L445.138 77.6054L443.112 85.3446C442.972 85.8789 443.292 86.4254 443.826 86.5653C444.36 86.7052 444.907 86.3854 445.047 85.8512L447.326 77.1445ZM382.129 115.628L446.863 77.7544L445.854 76.0282L381.119 113.902L382.129 115.628Z" fill="#1E1E1E"/>
<path id="Arrow 15" d="M586.466 288.301C586.583 288.84 587.116 289.183 587.656 289.066L596.45 287.154C596.99 287.036 597.332 286.504 597.215 285.964C597.098 285.424 596.565 285.082 596.025 285.199L588.208 286.899L586.508 279.081C586.391 278.542 585.859 278.199 585.319 278.317C584.779 278.434 584.437 278.967 584.554 279.506L586.466 288.301ZM627.159 224.459L586.602 287.548L588.284 288.629L628.841 225.541L627.159 224.459Z" fill="#1E1E1E"/>
<path id="Arrow 17" d="M576.293 416.707C576.683 417.098 577.317 417.098 577.707 416.707L584.071 410.343C584.462 409.953 584.462 409.319 584.071 408.929C583.681 408.538 583.047 408.538 582.657 408.929L577 414.586L571.343 408.929C570.953 408.538 570.319 408.538 569.929 408.929C569.538 409.319 569.538 409.953 569.929 410.343L576.293 416.707ZM576 341V416H578V341H576Z" fill="#1E1E1E"/>
<path id="Arrow 19" d="M694.523 423.523C695.075 423.523 695.523 423.075 695.523 422.523V413.523C695.523 412.971 695.075 412.523 694.523 412.523C693.971 412.523 693.523 412.971 693.523 413.523V421.523L685.523 421.523C684.971 421.523 684.523 421.971 684.523 422.523C684.523 423.075 684.971 423.523 685.523 423.523L694.523 423.523ZM596.77 326.184L693.816 423.23L695.23 421.816L598.184 324.77L596.77 326.184Z" fill="#1E1E1E"/>
<path id="Arrow 20" d="M592 422.046C592 422.599 592.448 423.046 593 423.046L602 423.046C602.552 423.046 603 422.599 603 422.046C603 421.494 602.552 421.046 602 421.046L594 421.046V413.046C594 412.494 593.552 412.046 593 412.046C592.448 412.046 592 412.494 592 413.046V422.046ZM689.339 324.293L592.293 421.339L593.707 422.753L690.753 325.707L689.339 324.293Z" fill="#1E1E1E"/>
<path id="Arrow 18" d="M712.293 416.707C712.683 417.098 713.317 417.098 713.707 416.707L720.071 410.343C720.462 409.953 720.462 409.319 720.071 408.929C719.681 408.538 719.047 408.538 718.657 408.929L713 414.586L707.343 408.929C706.953 408.538 706.319 408.538 705.929 408.929C705.538 409.319 705.538 409.953 705.929 410.343L712.293 416.707ZM712 341V416H714V341H712Z" fill="#1E1E1E"/>
<path id="Arrow 16" d="M700.181 289.531C700.722 289.642 701.25 289.292 701.36 288.751L703.156 279.932C703.267 279.391 702.917 278.863 702.376 278.753C701.835 278.642 701.307 278.992 701.197 279.533L699.6 287.372L691.761 285.775C691.22 285.665 690.692 286.014 690.581 286.555C690.471 287.097 690.821 287.625 691.362 287.735L700.181 289.531ZM658.166 226.552L699.546 289.103L701.214 288L659.834 225.448L658.166 226.552Z" fill="#1E1E1E"/>
<path id="Arrow 11" d="M620.576 78.8174C621.027 78.4993 621.136 77.8754 620.817 77.424L615.633 70.0671C615.315 69.6157 614.691 69.5076 614.24 69.8258C613.788 70.1439 613.68 70.7678 613.998 71.2192L618.607 77.7586L612.067 82.3669C611.616 82.685 611.508 83.3089 611.826 83.7604C612.144 84.2118 612.768 84.3199 613.219 84.0018L620.576 78.8174ZM492.829 56.9853L619.829 78.9853L620.171 77.0147L493.171 55.0147L492.829 56.9853Z" fill="#1E1E1E"/>
<path id="Arrow 12" d="M616.713 203.701C617.1 203.308 617.095 202.674 616.701 202.287L610.285 195.976C609.891 195.589 609.258 195.594 608.871 195.988C608.483 196.381 608.489 197.014 608.882 197.402L614.586 203.012L608.976 208.715C608.589 209.109 608.594 209.742 608.988 210.129C609.381 210.517 610.014 210.511 610.402 210.118L616.713 203.701ZM495.008 205L616.008 204L615.992 202L494.992 203L495.008 205Z" fill="#1E1E1E"/>
<path id="Arrow 22" d="M647 422L647.365 421.069L646.988 420.921L646.614 421.078L647 422ZM603.075 439.621C602.865 440.132 603.11 440.716 603.621 440.925L611.949 444.338C612.46 444.548 613.044 444.303 613.253 443.792C613.462 443.281 613.218 442.697 612.707 442.488L605.305 439.454L608.338 432.051C608.548 431.54 608.303 430.956 607.792 430.747C607.281 430.538 606.697 430.782 606.488 431.293L603.075 439.621ZM686.865 436.569L647.365 421.069L646.635 422.931L686.135 438.431L686.865 436.569ZM646.614 421.078L603.614 439.078L604.386 440.922L647.386 422.922L646.614 421.078Z" fill="#1E1E1E"/>
<path id="Arrow 23" d="M641.5 468L641.135 468.931L641.512 469.079L641.886 468.922L641.5 468ZM685.425 450.379C685.635 449.868 685.39 449.284 684.879 449.075L676.551 445.662C676.04 445.452 675.456 445.697 675.247 446.208C675.038 446.719 675.282 447.303 675.793 447.512L683.195 450.546L680.162 457.949C679.952 458.46 680.197 459.044 680.708 459.253C681.219 459.462 681.803 459.218 682.012 458.707L685.425 450.379ZM601.635 453.431L641.135 468.931L641.865 467.069L602.365 451.569L601.635 453.431ZM641.886 468.922L684.886 450.922L684.114 449.078L641.114 467.078L641.886 468.922Z" fill="#1E1E1E"/>
<path id="Arrow 14" d="M643.293 174.707C643.683 175.098 644.317 175.098 644.707 174.707L651.071 168.343C651.462 167.953 651.462 167.319 651.071 166.929C650.681 166.538 650.047 166.538 649.657 166.929L644 172.586L638.343 166.929C637.953 166.538 637.319 166.538 636.929 166.929C636.538 167.319 636.538 167.953 636.929 168.343L643.293 174.707ZM643 119V174H645V119H643Z" fill="#1E1E1E"/>
<path id="Arrow 4" d="M234.707 109.909C235.245 109.786 235.582 109.25 235.46 108.712L233.461 99.9365C233.339 99.398 232.803 99.0608 232.264 99.1835C231.726 99.3061 231.389 99.842 231.511 100.381L233.287 108.181L225.487 109.957C224.949 110.08 224.612 110.616 224.734 111.154C224.857 111.693 225.393 112.03 225.931 111.907L234.707 109.909ZM170.468 69.8465L233.952 109.78L235.017 108.087L171.532 68.1535L170.468 69.8465Z" fill="#1E1E1E"/>
<path id="Arrow 6" d="M340.397 112.918C340.904 112.699 341.137 112.11 340.918 111.603L337.348 103.342C337.129 102.835 336.54 102.601 336.033 102.82C335.526 103.039 335.293 103.628 335.512 104.135L338.685 111.479L331.342 114.652C330.835 114.871 330.601 115.46 330.82 115.967C331.039 116.474 331.628 116.707 332.135 116.488L340.397 112.918ZM165.631 43.9296L339.631 112.93L340.369 111.07L166.369 42.0704L165.631 43.9296Z" fill="#1E1E1E"/>
<path id="Arrow 13" d="M388.217 131.379C387.873 131.811 387.946 132.44 388.379 132.783L395.43 138.376C395.863 138.719 396.492 138.647 396.835 138.214C397.178 137.781 397.106 137.152 396.673 136.809L390.405 131.838L395.376 125.57C395.719 125.137 395.647 124.508 395.214 124.165C394.781 123.822 394.152 123.894 393.809 124.327L388.217 131.379ZM622.885 104.007L388.885 131.007L389.115 132.993L623.115 105.993L622.885 104.007Z" fill="#1E1E1E"/>
<path id="Arrow 7" d="M340.919 153.397C341.138 152.89 340.905 152.301 340.398 152.082L332.136 148.512C331.629 148.293 331.041 148.526 330.821 149.033C330.602 149.54 330.836 150.129 331.343 150.348L338.686 153.521L335.513 160.865C335.294 161.372 335.527 161.961 336.034 162.18C336.541 162.399 337.13 162.165 337.349 161.658L340.919 153.397ZM166.369 222.927L340.37 153.93L339.632 152.07L165.631 221.068L166.369 222.927Z" fill="#1E1E1E"/>
<path id="Arrow 5" d="M236.614 157.251C236.753 156.716 236.432 156.171 235.897 156.032L227.186 153.773C226.651 153.634 226.105 153.955 225.967 154.49C225.828 155.025 226.149 155.57 226.684 155.709L234.427 157.717L232.42 165.461C232.281 165.996 232.602 166.541 233.136 166.68C233.671 166.819 234.217 166.498 234.355 165.963L236.614 157.251ZM171.507 195.886L236.153 157.862L235.139 156.138L170.493 194.162L171.507 195.886Z" fill="#1E1E1E"/>
<path id="Arrow 3" d="M120.987 195.843C121.521 195.703 121.841 195.157 121.701 194.623L119.422 185.916C119.282 185.382 118.736 185.062 118.201 185.202C117.667 185.342 117.347 185.888 117.487 186.422L119.513 194.162L111.773 196.187C111.239 196.327 110.919 196.874 111.059 197.408C111.199 197.942 111.746 198.262 112.28 198.122L120.987 195.843ZM55.495 157.863L120.228 195.739L121.238 194.013L56.505 156.137L55.495 157.863Z" fill="#1E1E1E"/>
<path id="Arrow 9" d="M444.987 191.843C445.521 191.703 445.841 191.157 445.701 190.623L443.422 181.916C443.282 181.382 442.736 181.062 442.201 181.202C441.667 181.342 441.347 181.888 441.487 182.422L443.513 190.162L435.773 192.187C435.239 192.327 434.919 192.874 435.059 193.408C435.199 193.942 435.746 194.262 436.28 194.122L444.987 191.843ZM379.495 153.863L444.228 191.739L445.238 190.013L380.505 152.137L379.495 153.863Z" fill="#1E1E1E"/>
<g id="1">
<circle id="circle2_1" cx="49.5" cy="132.5" r="25" fill="#413F3F" stroke="#1E1E1E" stroke-width="5"/>
<rect id="Rectangle 1" x="35" y="128" width="28" height="9" rx="4.5" fill="white"/>
</g>
<g id="4">
<circle id="circle2_4" cx="250.5" cy="132.5" r="25" fill="#413F3F" stroke="#1E1E1E" stroke-width="5"/>
<rect id="Rectangle 2" x="236" y="119" width="28" height="9" rx="4.5" fill="white"/>
<rect id="Rectangle 3" x="246" y="147" width="28" height="9" rx="4.5" transform="rotate(-90 246 147)" fill="white"/>
</g>
<path id="Arrow 10" d="M310 126L311 126L311 125L310 125L310 126ZM310 143.5L310 144.5L311 144.5L311 143.5L310 143.5ZM274.793 142.793C274.402 143.183 274.402 143.817 274.793 144.207L281.157 150.571C281.547 150.962 282.181 150.962 282.571 150.571C282.962 150.181 282.962 149.547 282.571 149.157L276.914 143.5L282.571 137.843C282.962 137.453 282.962 136.819 282.571 136.429C282.181 136.038 281.547 136.038 281.157 136.429L274.793 142.793ZM275.5 127L310 127L310 125L275.5 125L275.5 127ZM309 126L309 143.5L311 143.5L311 126L309 126ZM310 142.5L275.5 142.5L275.5 144.5L310 144.5L310 142.5Z" fill="#1E1E1E"/>
<path id="Arrow 24" d="M771.276 436.53L772.276 436.53L772.276 435.53L771.276 435.53L771.276 436.53ZM771.276 454.03L771.276 455.03L772.276 455.03L772.276 454.03L771.276 454.03ZM736.069 453.323C735.679 453.714 735.679 454.347 736.069 454.737L742.433 461.101C742.824 461.492 743.457 461.492 743.847 461.101C744.238 460.711 744.238 460.078 743.847 459.687L738.19 454.03L743.847 448.373C744.238 447.983 744.238 447.35 743.847 446.959C743.457 446.569 742.824 446.569 742.433 446.959L736.069 453.323ZM736.776 437.53L771.276 437.53L771.276 435.53L736.776 435.53L736.776 437.53ZM770.276 436.53L770.276 454.03L772.276 454.03L772.276 436.53L770.276 436.53ZM771.276 453.03L736.776 453.03L736.776 455.03L771.276 455.03L771.276 453.03Z" fill="#1E1E1E"/>
<g id="13">
<circle id="circle2_13" cx="712.5" cy="444.5" r="25" fill="#413F3F" stroke="#1E1E1E" stroke-width="5"/>
<rect id="Rectangle 5" x="708" y="459" width="28" height="9" rx="4.5" transform="rotate(-90 708 459)" fill="white"/>
<rect id="Rectangle 6" x="699" y="440" width="28" height="9" rx="4.5" fill="white"/>
</g>
<g id="12">
<circle id="circle2_12" cx="576.5" cy="444.5" r="25" fill="#413F3F" stroke="#1E1E1E" stroke-width="5"/>
<rect id="Rectangle 4" x="572" y="459" width="28" height="9" rx="4.5" transform="rotate(-90 572 459)" fill="white"/>
<rect id="Rectangle 7" x="563" y="440" width="28" height="9" rx="4.5" fill="white"/>
</g>
<path id="0" d="M79.9 82.5C79.9 80.2067 80.34 78.4 81.22 77.08C82.1133 75.76 83.5467 75.1 85.52 75.1C87.4933 75.1 88.92 75.76 89.8 77.08C90.6933 78.4 91.14 80.2067 91.14 82.5C91.14 84.82 90.6933 86.64 89.8 87.96C88.92 89.28 87.4933 89.94 85.52 89.94C83.5467 89.94 82.1133 89.28 81.22 87.96C80.34 86.64 79.9 84.82 79.9 82.5ZM87.78 82.5C87.78 81.1533 87.6333 80.12 87.34 79.4C87.0467 78.6667 86.44 78.3 85.52 78.3C84.6 78.3 83.9933 78.6667 83.7 79.4C83.4067 80.12 83.26 81.1533 83.26 82.5C83.26 83.4067 83.3133 84.16 83.42 84.76C83.5267 85.3467 83.74 85.8267 84.06 86.2C84.3933 86.56 84.88 86.74 85.52 86.74C86.16 86.74 86.64 86.56 86.96 86.2C87.2933 85.8267 87.5133 85.3467 87.62 84.76C87.7267 84.16 87.78 83.4067 87.78 82.5Z" fill="#1E1E1E"/>
<path id="1_2" d="M80.54 180.58V177.4H86.08V192H82.52V180.58H80.54Z" fill="#1E1E1E"/>
<path id="1_3" d="M192.54 89.58V86.4H198.08V101H194.52V89.58H192.54Z" fill="#1E1E1E"/>
<path id="1_4" d="M404.54 84.58V81.4H410.08V96H406.52V84.58H404.54Z" fill="#1E1E1E"/>
<path id="1_5" d="M632.54 135.58V132.4H638.08V147H634.52V135.58H632.54Z" fill="#1E1E1E"/>
<path id="1_6" d="M549.54 211.58V208.4H555.08V223H551.52V211.58H549.54Z" fill="#1E1E1E"/>
<path id="1_7" d="M598.54 245.58V242.4H604.08V257H600.52V245.58H598.54Z" fill="#1E1E1E"/>
<path id="1_8" d="M620.54 335.58V332.4H626.08V347H622.52V335.58H620.54Z" fill="#1E1E1E"/>
<path id="1_9" d="M643.54 407.58V404.4H649.08V419H645.52V407.58H643.54Z" fill="#1E1E1E"/>
<path id="1_10" d="M506.54 441.58V438.4H512.08V453H508.52V441.58H506.54Z" fill="#1E1E1E"/>
<path id="1_11" d="M717.54 368.58V365.4H723.08V380H719.52V368.58H717.54Z" fill="#1E1E1E"/>
<path id="1_12" d="M256.54 191.58V188.4H262.08V203H258.52V191.58H256.54Z" fill="#1E1E1E"/>
<path id="0,1" d="M285.9 116.5C285.9 114.207 286.34 112.4 287.22 111.08C288.113 109.76 289.547 109.1 291.52 109.1C293.493 109.1 294.92 109.76 295.8 111.08C296.693 112.4 297.14 114.207 297.14 116.5C297.14 118.82 296.693 120.64 295.8 121.96C294.92 123.28 293.493 123.94 291.52 123.94C289.547 123.94 288.113 123.28 287.22 121.96C286.34 120.64 285.9 118.82 285.9 116.5ZM293.78 116.5C293.78 115.153 293.633 114.12 293.34 113.4C293.047 112.667 292.44 112.3 291.52 112.3C290.6 112.3 289.993 112.667 289.7 113.4C289.407 114.12 289.26 115.153 289.26 116.5C289.26 117.407 289.313 118.16 289.42 118.76C289.527 119.347 289.74 119.827 290.06 120.2C290.393 120.56 290.88 120.74 291.52 120.74C292.16 120.74 292.64 120.56 292.96 120.2C293.293 119.827 293.513 119.347 293.62 118.76C293.727 118.16 293.78 117.407 293.78 116.5ZM302.967 120.84L300.747 126.58H298.567L299.727 120.84H302.967ZM304.329 112.58V109.4H309.869V124H306.309V112.58H304.329Z" fill="#1E1E1E"/>
<path id="0,1_2" d="M539.9 51.5C539.9 49.2067 540.34 47.4 541.22 46.08C542.113 44.76 543.547 44.1 545.52 44.1C547.493 44.1 548.92 44.76 549.8 46.08C550.693 47.4 551.14 49.2067 551.14 51.5C551.14 53.82 550.693 55.64 549.8 56.96C548.92 58.28 547.493 58.94 545.52 58.94C543.547 58.94 542.113 58.28 541.22 56.96C540.34 55.64 539.9 53.82 539.9 51.5ZM547.78 51.5C547.78 50.1533 547.633 49.12 547.34 48.4C547.047 47.6667 546.44 47.3 545.52 47.3C544.6 47.3 543.993 47.6667 543.7 48.4C543.407 49.12 543.26 50.1533 543.26 51.5C543.26 52.4067 543.313 53.16 543.42 53.76C543.527 54.3467 543.74 54.8267 544.06 55.2C544.393 55.56 544.88 55.74 545.52 55.74C546.16 55.74 546.64 55.56 546.96 55.2C547.293 54.8267 547.513 54.3467 547.62 53.76C547.727 53.16 547.78 52.4067 547.78 51.5ZM556.967 55.84L554.747 61.58H552.567L553.727 55.84H556.967ZM558.329 47.58V44.4H563.869V59H560.309V47.58H558.329Z" fill="#1E1E1E"/>
<path id="0_2" d="M190.9 166.5C190.9 164.207 191.34 162.4 192.22 161.08C193.113 159.76 194.547 159.1 196.52 159.1C198.493 159.1 199.92 159.76 200.8 161.08C201.693 162.4 202.14 164.207 202.14 166.5C202.14 168.82 201.693 170.64 200.8 171.96C199.92 173.28 198.493 173.94 196.52 173.94C194.547 173.94 193.113 173.28 192.22 171.96C191.34 170.64 190.9 168.82 190.9 166.5ZM198.78 166.5C198.78 165.153 198.633 164.12 198.34 163.4C198.047 162.667 197.44 162.3 196.52 162.3C195.6 162.3 194.993 162.667 194.7 163.4C194.407 164.12 194.26 165.153 194.26 166.5C194.26 167.407 194.313 168.16 194.42 168.76C194.527 169.347 194.74 169.827 195.06 170.2C195.393 170.56 195.88 170.74 196.52 170.74C197.16 170.74 197.64 170.56 197.96 170.2C198.293 169.827 198.513 169.347 198.62 168.76C198.727 168.16 198.78 167.407 198.78 166.5Z" fill="#1E1E1E"/>
<path id="0_3" d="M253.9 70.5C253.9 68.2067 254.34 66.4 255.22 65.08C256.113 63.76 257.547 63.1 259.52 63.1C261.493 63.1 262.92 63.76 263.8 65.08C264.693 66.4 265.14 68.2067 265.14 70.5C265.14 72.82 264.693 74.64 263.8 75.96C262.92 77.28 261.493 77.94 259.52 77.94C257.547 77.94 256.113 77.28 255.22 75.96C254.34 74.64 253.9 72.82 253.9 70.5ZM261.78 70.5C261.78 69.1533 261.633 68.12 261.34 67.4C261.047 66.6667 260.44 66.3 259.52 66.3C258.6 66.3 257.993 66.6667 257.7 67.4C257.407 68.12 257.26 69.1533 257.26 70.5C257.26 71.4067 257.313 72.16 257.42 72.76C257.527 73.3467 257.74 73.8267 258.06 74.2C258.393 74.56 258.88 74.74 259.52 74.74C260.16 74.74 260.64 74.56 260.96 74.2C261.293 73.8267 261.513 73.3467 261.62 72.76C261.727 72.16 261.78 71.4067 261.78 70.5Z" fill="#1E1E1E"/>
<path id="0_4" d="M399.9 178.5C399.9 176.207 400.34 174.4 401.22 173.08C402.113 171.76 403.547 171.1 405.52 171.1C407.493 171.1 408.92 171.76 409.8 173.08C410.693 174.4 411.14 176.207 411.14 178.5C411.14 180.82 410.693 182.64 409.8 183.96C408.92 185.28 407.493 185.94 405.52 185.94C403.547 185.94 402.113 185.28 401.22 183.96C400.34 182.64 399.9 180.82 399.9 178.5ZM407.78 178.5C407.78 177.153 407.633 176.12 407.34 175.4C407.047 174.667 406.44 174.3 405.52 174.3C404.6 174.3 403.993 174.667 403.7 175.4C403.407 176.12 403.26 177.153 403.26 178.5C403.26 179.407 403.313 180.16 403.42 180.76C403.527 181.347 403.74 181.827 404.06 182.2C404.393 182.56 404.88 182.74 405.52 182.74C406.16 182.74 406.64 182.56 406.96 182.2C407.293 181.827 407.513 181.347 407.62 180.76C407.727 180.16 407.78 179.407 407.78 178.5Z" fill="#1E1E1E"/>
<path id="0_5" d="M509.9 106.5C509.9 104.207 510.34 102.4 511.22 101.08C512.113 99.76 513.547 99.1 515.52 99.1C517.493 99.1 518.92 99.76 519.8 101.08C520.693 102.4 521.14 104.207 521.14 106.5C521.14 108.82 520.693 110.64 519.8 111.96C518.92 113.28 517.493 113.94 515.52 113.94C513.547 113.94 512.113 113.28 511.22 111.96C510.34 110.64 509.9 108.82 509.9 106.5ZM517.78 106.5C517.78 105.153 517.633 104.12 517.34 103.4C517.047 102.667 516.44 102.3 515.52 102.3C514.6 102.3 513.993 102.667 513.7 103.4C513.407 104.12 513.26 105.153 513.26 106.5C513.26 107.407 513.313 108.16 513.42 108.76C513.527 109.347 513.74 109.827 514.06 110.2C514.393 110.56 514.88 110.74 515.52 110.74C516.16 110.74 516.64 110.56 516.96 110.2C517.293 109.827 517.513 109.347 517.62 108.76C517.727 108.16 517.78 107.407 517.78 106.5Z" fill="#1E1E1E"/>
<path id="0_6" d="M681.9 249.5C681.9 247.207 682.34 245.4 683.22 244.08C684.113 242.76 685.547 242.1 687.52 242.1C689.493 242.1 690.92 242.76 691.8 244.08C692.693 245.4 693.14 247.207 693.14 249.5C693.14 251.82 692.693 253.64 691.8 254.96C690.92 256.28 689.493 256.94 687.52 256.94C685.547 256.94 684.113 256.28 683.22 254.96C682.34 253.64 681.9 251.82 681.9 249.5ZM689.78 249.5C689.78 248.153 689.633 247.12 689.34 246.4C689.047 245.667 688.44 245.3 687.52 245.3C686.6 245.3 685.993 245.667 685.7 246.4C685.407 247.12 685.26 248.153 685.26 249.5C685.26 250.407 685.313 251.16 685.42 251.76C685.527 252.347 685.74 252.827 686.06 253.2C686.393 253.56 686.88 253.74 687.52 253.74C688.16 253.74 688.64 253.56 688.96 253.2C689.293 252.827 689.513 252.347 689.62 251.76C689.727 251.16 689.78 250.407 689.78 249.5Z" fill="#1E1E1E"/>
<path id="0_7" d="M562.9 372.5C562.9 370.207 563.34 368.4 564.22 367.08C565.113 365.76 566.547 365.1 568.52 365.1C570.493 365.1 571.92 365.76 572.8 367.08C573.693 368.4 574.14 370.207 574.14 372.5C574.14 374.82 573.693 376.64 572.8 377.96C571.92 379.28 570.493 379.94 568.52 379.94C566.547 379.94 565.113 379.28 564.22 377.96C563.34 376.64 562.9 374.82 562.9 372.5ZM570.78 372.5C570.78 371.153 570.633 370.12 570.34 369.4C570.047 368.667 569.44 368.3 568.52 368.3C567.6 368.3 566.993 368.667 566.7 369.4C566.407 370.12 566.26 371.153 566.26 372.5C566.26 373.407 566.313 374.16 566.42 374.76C566.527 375.347 566.74 375.827 567.06 376.2C567.393 376.56 567.88 376.74 568.52 376.74C569.16 376.74 569.64 376.56 569.96 376.2C570.293 375.827 570.513 375.347 570.62 374.76C570.727 374.16 570.78 373.407 570.78 372.5Z" fill="#1E1E1E"/>
<path id="0_8" d="M653.9 340.5C653.9 338.207 654.34 336.4 655.22 335.08C656.113 333.76 657.547 333.1 659.52 333.1C661.493 333.1 662.92 333.76 663.8 335.08C664.693 336.4 665.14 338.207 665.14 340.5C665.14 342.82 664.693 344.64 663.8 345.96C662.92 347.28 661.493 347.94 659.52 347.94C657.547 347.94 656.113 347.28 655.22 345.96C654.34 344.64 653.9 342.82 653.9 340.5ZM661.78 340.5C661.78 339.153 661.633 338.12 661.34 337.4C661.047 336.667 660.44 336.3 659.52 336.3C658.6 336.3 657.993 336.667 657.7 337.4C657.407 338.12 657.26 339.153 657.26 340.5C657.26 341.407 657.313 342.16 657.42 342.76C657.527 343.347 657.74 343.827 658.06 344.2C658.393 344.56 658.88 344.74 659.52 344.74C660.16 344.74 660.64 344.56 660.96 344.2C661.293 343.827 661.513 343.347 661.62 342.76C661.727 342.16 661.78 341.407 661.78 340.5Z" fill="#1E1E1E"/>
<path id="0_9" d="M634.9 478.5C634.9 476.207 635.34 474.4 636.22 473.08C637.113 471.76 638.547 471.1 640.52 471.1C642.493 471.1 643.92 471.76 644.8 473.08C645.693 474.4 646.14 476.207 646.14 478.5C646.14 480.82 645.693 482.64 644.8 483.96C643.92 485.28 642.493 485.94 640.52 485.94C638.547 485.94 637.113 485.28 636.22 483.96C635.34 482.64 634.9 480.82 634.9 478.5ZM642.78 478.5C642.78 477.153 642.633 476.12 642.34 475.4C642.047 474.667 641.44 474.3 640.52 474.3C639.6 474.3 638.993 474.667 638.7 475.4C638.407 476.12 638.26 477.153 638.26 478.5C638.26 479.407 638.313 480.16 638.42 480.76C638.527 481.347 638.74 481.827 639.06 482.2C639.393 482.56 639.88 482.74 640.52 482.74C641.16 482.74 641.64 482.56 641.96 482.2C642.293 481.827 642.513 481.347 642.62 480.76C642.727 480.16 642.78 479.407 642.78 478.5Z" fill="#1E1E1E"/>
<path id="0_10" d="M773.9 444.5C773.9 442.207 774.34 440.4 775.22 439.08C776.113 437.76 777.547 437.1 779.52 437.1C781.493 437.1 782.92 437.76 783.8 439.08C784.693 440.4 785.14 442.207 785.14 444.5C785.14 446.82 784.693 448.64 783.8 449.96C782.92 451.28 781.493 451.94 779.52 451.94C777.547 451.94 776.113 451.28 775.22 449.96C774.34 448.64 773.9 446.82 773.9 444.5ZM781.78 444.5C781.78 443.153 781.633 442.12 781.34 441.4C781.047 440.667 780.44 440.3 779.52 440.3C778.6 440.3 777.993 440.667 777.7 441.4C777.407 442.12 777.26 443.153 777.26 444.5C777.26 445.407 777.313 446.16 777.42 446.76C777.527 447.347 777.74 447.827 778.06 448.2C778.393 448.56 778.88 448.74 779.52 448.74C780.16 448.74 780.64 448.56 780.96 448.2C781.293 447.827 781.513 447.347 781.62 446.76C781.727 446.16 781.78 445.407 781.78 444.5Z" fill="#1E1E1E"/>
<path id="0_11" d="M448.9 149.5C448.9 147.207 449.34 145.4 450.22 144.08C451.113 142.76 452.547 142.1 454.52 142.1C456.493 142.1 457.92 142.76 458.8 144.08C459.693 145.4 460.14 147.207 460.14 149.5C460.14 151.82 459.693 153.64 458.8 154.96C457.92 156.28 456.493 156.94 454.52 156.94C452.547 156.94 451.113 156.28 450.22 154.96C449.34 153.64 448.9 151.82 448.9 149.5ZM456.78 149.5C456.78 148.153 456.633 147.12 456.34 146.4C456.047 145.667 455.44 145.3 454.52 145.3C453.6 145.3 452.993 145.667 452.7 146.4C452.407 147.12 452.26 148.153 452.26 149.5C452.26 150.407 452.313 151.16 452.42 151.76C452.527 152.347 452.74 152.827 453.06 153.2C453.393 153.56 453.88 153.74 454.52 153.74C455.16 153.74 455.64 153.56 455.96 153.2C456.293 152.827 456.513 152.347 456.62 151.76C456.727 151.16 456.78 150.407 456.78 149.5Z" fill="#1E1E1E"/>
<path id="Arrow 25" d="M516.777 455.03L515.777 455.04L515.786 456.04L516.786 456.03L516.777 455.03ZM516.61 437.531L516.601 436.531L515.601 436.54L515.61 437.54L516.61 437.531ZM551.822 437.903C552.209 437.509 552.203 436.876 551.809 436.489L545.385 430.186C544.991 429.799 544.357 429.805 543.971 430.199C543.584 430.594 543.59 431.227 543.984 431.613L549.694 437.216L544.092 442.927C543.705 443.321 543.711 443.954 544.105 444.341C544.499 444.728 545.132 444.722 545.519 444.327L551.822 437.903ZM551.265 453.702L516.767 454.03L516.786 456.03L551.284 455.702L551.265 453.702ZM517.776 455.021L517.61 437.521L515.61 437.54L515.777 455.04L517.776 455.021ZM516.62 438.531L551.118 438.203L551.099 436.203L516.601 436.531L516.62 438.531Z" fill="#1E1E1E"/>
<path id="Arrow 26" d="M516.777 455.03L515.777 455.04L515.786 456.04L516.786 456.03L516.777 455.03ZM516.61 437.531L516.601 436.531L515.601 436.54L515.61 437.54L516.61 437.531ZM551.822 437.903C552.209 437.509 552.203 436.876 551.809 436.489L545.385 430.186C544.991 429.799 544.357 429.805 543.971 430.199C543.584 430.594 543.59 431.227 543.984 431.613L549.694 437.216L544.092 442.927C543.705 443.321 543.711 443.954 544.105 444.341C544.499 444.728 545.132 444.722 545.519 444.327L551.822 437.903ZM551.265 453.702L516.767 454.03L516.786 456.03L551.284 455.702L551.265 453.702ZM517.776 455.021L517.61 437.521L515.61 437.54L515.777 455.04L517.776 455.021ZM516.62 438.531L551.118 438.203L551.099 436.203L516.601 436.531L516.62 438.531Z" fill="#1E1E1E"/>
<path id="Arrow 27" d="M462.203 143.777L462.193 142.777L461.193 142.786L461.203 143.786L462.203 143.777ZM479.702 143.61L480.702 143.601L480.692 142.601L479.693 142.61L479.702 143.61ZM479.33 178.822C479.724 179.209 480.357 179.203 480.744 178.809L487.047 172.385C487.434 171.991 487.428 171.357 487.034 170.971C486.639 170.584 486.006 170.59 485.619 170.984L480.017 176.694L474.306 171.092C473.912 170.705 473.279 170.711 472.892 171.105C472.505 171.499 472.511 172.132 472.906 172.519L479.33 178.822ZM463.531 178.265L463.203 143.767L461.203 143.786L461.531 178.284L463.531 178.265ZM462.212 144.776L479.712 144.61L479.693 142.61L462.193 142.777L462.212 144.776ZM478.702 143.62L479.03 178.118L481.03 178.099L480.702 143.601L478.702 143.62Z" fill="#1E1E1E"/>
</g>
</svg>
